<?xml version="1.0" encoding="UTF-8"?>
<svg width="30" height="30" viewBox="0 0 30 30" xmlns="http://www.w3.org/2000/svg">
  <path d="M15 3C14 3 13 3.5 12.5 4.5C12 3.5 11 3 10 3C8.3 3 7 4.3 7 6C7 7.7 8.3 9 10 9C11 9 12 8.5 12.5 7.5C13 8.5 14 9 15 9C16 9 17 8.5 17.5 7.5C18 8.5 19 9 20 9C21.7 9 23 7.7 23 6C23 4.3 21.7 3 20 3C19 3 18 3.5 17.5 4.5C17 3.5 16 3 15 3z" fill="#9e7b7b"/>
  <path d="M15 21C14 21 13 21.5 12.5 22.5C12 21.5 11 21 10 21C8.3 21 7 22.3 7 24C7 25.7 8.3 27 10 27C11 27 12 26.5 12.5 25.5C13 26.5 14 27 15 27C16 27 17 26.5 17.5 25.5C18 26.5 19 27 20 27C21.7 27 23 25.7 23 24C23 22.3 21.7 21 20 21C19 21 18 21.5 17.5 22.5C17 21.5 16 21 15 21z" fill="#9e7b7b"/>
  <path d="M15 12C14 12 13 12.5 12.5 13.5C12 12.5 11 12 10 12C8.3 12 7 13.3 7 15C7 16.7 8.3 18 10 18C11 18 12 17.5 12.5 16.5C13 17.5 14 18 15 18C16 18 17 17.5 17.5 16.5C18 17.5 19 18 20 18C21.7 18 23 16.7 23 15C23 13.3 21.7 12 20 12C19 12 18 12.5 17.5 13.5C17 12.5 16 12 15 12z" fill="#9e7b7b"/>
</svg> 